<svg xmlns="http://www.w3.org/2000/svg" xmlns:xlink="http://www.w3.org/1999/xlink" width="500" zoomAndPan="magnify" viewBox="0 0 375 374.999991" height="500" preserveAspectRatio="xMidYMid meet" version="1.0"><rect x="-37.5" width="450" fill="#ffffff" y="-37.499999" height="449.999989" fill-opacity="1"/><rect x="-37.5" width="450" fill="#ffffff" y="-37.499999" height="449.999989" fill-opacity="1"/><rect x="-37.5" width="450" fill="#fbfaf9" y="-37.499999" height="449.999989" fill-opacity="1"/><path fill="#ac2037" d="M 4.769531 145.90625 L 372.511719 145.90625 C 370.113281 135.296875 366.824219 125.027344 362.722656 115.183594 L 14.554688 115.183594 C 10.453125 125.027344 7.164062 135.296875 4.769531 145.90625 " fill-opacity="1" fill-rule="nonzero"/><path fill="#ac2037" d="M 0.148438 187.492188 C 0.148438 192.664062 0.367188 197.785156 0.773438 202.851562 L 376.503906 202.851562 C 376.910156 197.785156 377.128906 192.664062 377.128906 187.492188 C 377.128906 182.316406 376.910156 177.195312 376.503906 172.128906 L 0.773438 172.128906 C 0.367188 177.195312 0.148438 182.316406 0.148438 187.492188 " fill-opacity="1" fill-rule="nonzero"/><path fill="#ac2037" d="M 14.554688 259.796875 L 362.722656 259.796875 C 366.824219 249.953125 370.113281 239.683594 372.511719 229.074219 L 4.769531 229.074219 C 7.164062 239.683594 10.453125 249.953125 14.554688 259.796875 " fill-opacity="1" fill-rule="nonzero"/><path fill="#ac2037" d="M 51.578125 316.746094 L 325.699219 316.746094 C 334.566406 307.363281 342.480469 297.070312 349.285156 286.023438 L 27.992188 286.023438 C 34.796875 297.070312 42.707031 307.363281 51.578125 316.746094 " fill-opacity="1" fill-rule="nonzero"/><path fill="#ac2037" d="M 27.992188 88.960938 L 349.285156 88.960938 C 342.480469 77.914062 334.566406 67.621094 325.699219 58.238281 L 51.574219 58.238281 C 42.707031 67.621094 34.792969 77.914062 27.992188 88.960938 " fill-opacity="1" fill-rule="nonzero"/><path fill="#ac2037" d="M 82.285156 342.96875 C 108.058594 360.59375 138.429688 371.988281 171.238281 374.988281 L 206.039062 374.988281 C 238.84375 371.988281 269.21875 360.59375 294.988281 342.96875 L 82.285156 342.96875 " fill-opacity="1" fill-rule="nonzero"/><path fill="#ac2037" d="M 294.992188 32.011719 C 269.21875 14.386719 238.839844 2.992188 206.03125 -0.0078125 L 171.246094 -0.0078125 C 138.433594 2.992188 108.058594 14.386719 82.289062 32.011719 L 294.992188 32.011719 " fill-opacity="1" fill-rule="nonzero"/><path fill="#ffffff" d="M 51.574219 58.238281 L 325.699219 58.238281 C 316.445312 48.445312 306.148438 39.644531 294.992188 32.011719 L 82.289062 32.011719 C 71.128906 39.644531 60.832031 48.445312 51.574219 58.238281 " fill-opacity="1" fill-rule="nonzero"/><path fill="#ffffff" d="M 14.554688 115.183594 L 362.71875 115.183594 C 358.917969 106.058594 354.417969 97.292969 349.285156 88.960938 L 27.992188 88.960938 C 22.855469 97.292969 18.359375 106.058594 14.554688 115.183594 " fill-opacity="1" fill-rule="nonzero"/><path fill="#ffffff" d="M 0.773438 172.128906 L 376.503906 172.128906 C 375.78125 163.195312 374.4375 154.441406 372.511719 145.90625 L 4.769531 145.90625 C 2.84375 154.441406 1.496094 163.195312 0.773438 172.128906 " fill-opacity="1" fill-rule="nonzero"/><path fill="#ffffff" d="M 4.769531 229.074219 L 372.511719 229.074219 C 374.4375 220.539062 375.78125 211.785156 376.503906 202.851562 L 0.773438 202.851562 C 1.496094 211.785156 2.84375 220.539062 4.769531 229.074219 " fill-opacity="1" fill-rule="nonzero"/><path fill="#ffffff" d="M 27.992188 286.023438 L 349.285156 286.023438 C 354.417969 277.6875 358.917969 268.929688 362.71875 259.800781 L 14.554688 259.800781 C 18.359375 268.929688 22.859375 277.6875 27.992188 286.023438 " fill-opacity="1" fill-rule="nonzero"/><path fill="#ffffff" d="M 82.289062 342.96875 L 294.988281 342.96875 C 306.148438 335.335938 316.441406 326.535156 325.699219 316.746094 L 51.578125 316.746094 C 60.832031 326.535156 71.128906 335.335938 82.289062 342.96875 " fill-opacity="1" fill-rule="nonzero"/><path fill="#22325e" d="M 205.433594 -0.0078125 L 171.246094 -0.0078125 C 75.300781 8.765625 0.148438 89.351562 0.148438 187.492188 C 0.148438 192.664062 0.367188 197.785156 0.773438 202.851562 L 205.433594 202.851562 L 205.433594 -0.0078125 " fill-opacity="1" fill-rule="nonzero"/><path fill="#ffffff" d="M 29.007812 172.824219 L 32.160156 179.210938 L 39.214844 180.234375 L 34.109375 185.207031 L 35.316406 192.222656 L 29.007812 188.910156 L 22.695312 192.222656 L 23.902344 185.207031 L 18.796875 180.234375 L 25.851562 179.210938 L 29.007812 172.824219 " fill-opacity="1" fill-rule="nonzero"/><path fill="#ffffff" d="M 29.007812 132.273438 L 32.160156 138.65625 L 39.214844 139.683594 L 34.109375 144.652344 L 35.316406 151.671875 L 29.007812 148.359375 L 22.695312 151.671875 L 23.902344 144.652344 L 18.796875 139.683594 L 25.851562 138.65625 L 29.007812 132.273438 " fill-opacity="1" fill-rule="nonzero"/><path fill="#ffffff" d="M 35.316406 91.722656 L 38.472656 98.109375 L 45.527344 99.132812 L 40.421875 104.105469 L 41.625 111.121094 L 35.316406 107.808594 L 29.007812 111.121094 L 30.210938 104.105469 L 25.105469 99.132812 L 32.160156 98.109375 L 35.316406 91.722656 " fill-opacity="1" fill-rule="nonzero"/><path fill="#ffffff" d="M 55.078125 153.421875 L 58.230469 159.808594 L 65.285156 160.832031 L 60.179688 165.804688 L 61.386719 172.824219 L 55.078125 169.507812 L 48.765625 172.824219 L 49.972656 165.804688 L 44.867188 160.832031 L 51.921875 159.808594 L 55.078125 153.421875 " fill-opacity="1" fill-rule="nonzero"/><path fill="#ffffff" d="M 55.078125 112.875 L 58.230469 119.257812 L 65.285156 120.28125 L 60.179688 125.253906 L 61.386719 132.273438 L 55.078125 128.960938 L 48.765625 132.273438 L 49.972656 125.253906 L 44.867188 120.28125 L 51.921875 119.257812 L 55.078125 112.875 " fill-opacity="1" fill-rule="nonzero"/><path fill="#ffffff" d="M 55.078125 72.320312 L 58.230469 78.707031 L 65.285156 79.730469 L 60.179688 84.703125 L 61.386719 91.722656 L 55.078125 88.410156 L 48.765625 91.722656 L 49.972656 84.703125 L 44.867188 79.730469 L 51.921875 78.707031 L 55.078125 72.320312 " fill-opacity="1" fill-rule="nonzero"/><path fill="#ffffff" d="M 80.359375 172.824219 L 83.515625 179.210938 L 90.570312 180.234375 L 85.464844 185.207031 L 86.671875 192.222656 L 80.359375 188.910156 L 74.050781 192.222656 L 75.257812 185.207031 L 70.152344 180.234375 L 77.207031 179.210938 L 80.359375 172.824219 " fill-opacity="1" fill-rule="nonzero"/><path fill="#ffffff" d="M 80.359375 132.273438 L 83.515625 138.65625 L 90.570312 139.683594 L 85.464844 144.652344 L 86.671875 151.671875 L 80.359375 148.359375 L 74.050781 151.671875 L 75.257812 144.652344 L 70.152344 139.683594 L 77.207031 138.65625 L 80.359375 132.273438 " fill-opacity="1" fill-rule="nonzero"/><path fill="#ffffff" d="M 80.359375 91.722656 L 83.515625 98.109375 L 90.570312 99.132812 L 85.464844 104.105469 L 86.671875 111.121094 L 80.359375 107.808594 L 74.050781 111.121094 L 75.257812 104.105469 L 70.152344 99.132812 L 77.207031 98.109375 L 80.359375 91.722656 " fill-opacity="1" fill-rule="nonzero"/><path fill="#ffffff" d="M 80.363281 51.167969 L 83.515625 57.554688 L 90.570312 58.582031 L 85.464844 63.550781 L 86.671875 70.574219 L 80.363281 67.257812 L 74.050781 70.574219 L 75.257812 63.550781 L 70.152344 58.582031 L 77.207031 57.554688 L 80.363281 51.167969 " fill-opacity="1" fill-rule="nonzero"/><path fill="#ffffff" d="M 106.429688 153.421875 L 109.585938 159.808594 L 116.640625 160.832031 L 111.539062 165.804688 L 112.742188 172.824219 L 106.429688 169.507812 L 100.121094 172.824219 L 101.324219 165.804688 L 96.222656 160.832031 L 103.277344 159.808594 L 106.429688 153.421875 " fill-opacity="1" fill-rule="nonzero"/><path fill="#ffffff" d="M 106.429688 112.875 L 109.585938 119.257812 L 116.640625 120.28125 L 111.539062 125.253906 L 112.742188 132.273438 L 106.429688 128.960938 L 100.121094 132.273438 L 101.324219 125.253906 L 96.222656 120.28125 L 103.277344 119.257812 L 106.429688 112.875 " fill-opacity="1" fill-rule="nonzero"/><path fill="#ffffff" d="M 106.429688 72.320312 L 109.585938 78.707031 L 116.640625 79.730469 L 111.539062 84.703125 L 112.742188 91.722656 L 106.429688 88.410156 L 100.121094 91.722656 L 101.324219 84.703125 L 96.222656 79.730469 L 103.277344 78.707031 L 106.429688 72.320312 " fill-opacity="1" fill-rule="nonzero"/><path fill="#ffffff" d="M 106.429688 31.769531 L 109.585938 38.15625 L 116.640625 39.183594 L 111.539062 44.152344 L 112.742188 51.171875 L 106.429688 47.855469 L 100.121094 51.171875 L 101.324219 44.152344 L 96.222656 39.183594 L 103.277344 38.15625 L 106.429688 31.769531 " fill-opacity="1" fill-rule="nonzero"/><path fill="#ffffff" d="M 131.714844 172.824219 L 134.871094 179.210938 L 141.925781 180.234375 L 136.820312 185.207031 L 138.027344 192.222656 L 131.714844 188.910156 L 125.40625 192.222656 L 126.609375 185.207031 L 121.507812 180.234375 L 128.5625 179.210938 L 131.714844 172.824219 " fill-opacity="1" fill-rule="nonzero"/><path fill="#ffffff" d="M 131.714844 132.273438 L 134.871094 138.65625 L 141.925781 139.683594 L 136.820312 144.652344 L 138.027344 151.671875 L 131.714844 148.359375 L 125.40625 151.671875 L 126.609375 144.652344 L 121.507812 139.683594 L 128.5625 138.65625 L 131.714844 132.273438 " fill-opacity="1" fill-rule="nonzero"/><path fill="#ffffff" d="M 131.714844 91.722656 L 134.871094 98.109375 L 141.925781 99.132812 L 136.820312 104.105469 L 138.027344 111.121094 L 131.714844 107.808594 L 125.40625 111.121094 L 126.609375 104.105469 L 121.507812 99.132812 L 128.5625 98.109375 L 131.714844 91.722656 " fill-opacity="1" fill-rule="nonzero"/><path fill="#ffffff" d="M 131.714844 51.167969 L 134.871094 57.554688 L 141.925781 58.582031 L 136.820312 63.550781 L 138.027344 70.574219 L 131.714844 67.257812 L 125.40625 70.574219 L 126.613281 63.550781 L 121.507812 58.582031 L 128.5625 57.554688 L 131.714844 51.167969 " fill-opacity="1" fill-rule="nonzero"/><path fill="#ffffff" d="M 131.714844 10.621094 L 134.871094 17.003906 L 141.925781 18.03125 L 136.820312 23 L 138.027344 30.019531 L 131.714844 26.707031 L 125.40625 30.019531 L 126.609375 23 L 121.507812 18.03125 L 128.5625 17.003906 L 131.714844 10.621094 " fill-opacity="1" fill-rule="nonzero"/><path fill="#ffffff" d="M 157.785156 153.421875 L 160.941406 159.808594 L 167.996094 160.832031 L 162.894531 165.804688 L 164.097656 172.824219 L 157.785156 169.507812 L 151.476562 172.824219 L 152.679688 165.804688 L 147.578125 160.832031 L 154.632812 159.808594 L 157.785156 153.421875 " fill-opacity="1" fill-rule="nonzero"/><path fill="#ffffff" d="M 157.785156 112.875 L 160.941406 119.257812 L 167.996094 120.28125 L 162.894531 125.253906 L 164.097656 132.273438 L 157.785156 128.960938 L 151.476562 132.273438 L 152.679688 125.253906 L 147.578125 120.28125 L 154.632812 119.257812 L 157.785156 112.875 " fill-opacity="1" fill-rule="nonzero"/><path fill="#ffffff" d="M 157.785156 72.320312 L 160.941406 78.707031 L 167.996094 79.730469 L 162.894531 84.703125 L 164.097656 91.722656 L 157.785156 88.410156 L 151.476562 91.722656 L 152.679688 84.703125 L 147.578125 79.730469 L 154.632812 78.707031 L 157.785156 72.320312 " fill-opacity="1" fill-rule="nonzero"/><path fill="#ffffff" d="M 157.785156 31.769531 L 160.941406 38.15625 L 167.996094 39.183594 L 162.890625 44.152344 L 164.09375 51.171875 L 157.785156 47.855469 L 151.476562 51.171875 L 152.679688 44.152344 L 147.574219 39.183594 L 154.632812 38.15625 L 157.785156 31.769531 " fill-opacity="1" fill-rule="nonzero"/><path fill="#ffffff" d="M 183.070312 172.824219 L 186.226562 179.210938 L 193.28125 180.234375 L 188.175781 185.207031 L 189.378906 192.222656 L 183.070312 188.910156 L 176.761719 192.222656 L 177.96875 185.207031 L 172.859375 180.234375 L 179.917969 179.210938 L 183.070312 172.824219 " fill-opacity="1" fill-rule="nonzero"/><path fill="#ffffff" d="M 183.070312 132.273438 L 186.226562 138.65625 L 193.28125 139.683594 L 188.175781 144.652344 L 189.378906 151.671875 L 183.070312 148.359375 L 176.761719 151.671875 L 177.96875 144.652344 L 172.859375 139.683594 L 179.917969 138.65625 L 183.070312 132.273438 " fill-opacity="1" fill-rule="nonzero"/><path fill="#ffffff" d="M 183.070312 91.722656 L 186.226562 98.109375 L 193.28125 99.132812 L 188.175781 104.105469 L 189.378906 111.121094 L 183.070312 107.808594 L 176.761719 111.121094 L 177.96875 104.105469 L 172.859375 99.132812 L 179.917969 98.109375 L 183.070312 91.722656 " fill-opacity="1" fill-rule="nonzero"/><path fill="#ffffff" d="M 183.074219 51.167969 L 186.226562 57.554688 L 193.285156 58.582031 L 188.175781 63.550781 L 189.378906 70.574219 L 183.074219 67.257812 L 176.761719 70.574219 L 177.96875 63.550781 L 172.859375 58.582031 L 179.917969 57.554688 L 183.074219 51.167969 " fill-opacity="1" fill-rule="nonzero"/><path fill="#ffffff" d="M 183.070312 10.621094 L 186.226562 17.003906 L 193.28125 18.03125 L 188.175781 23 L 189.378906 30.019531 L 183.070312 26.707031 L 176.761719 30.019531 L 177.96875 23 L 172.859375 18.03125 L 179.917969 17.003906 L 183.070312 10.621094 " fill-opacity="1" fill-rule="nonzero"/></svg>