<svg width="54" height="56" viewBox="0 0 54 56" fill="none" xmlns="http://www.w3.org/2000/svg">
<path d="M52.9688 13.2182C52.9895 13.2913 53 13.3671 53 13.4432V25.0285C53 25.3323 52.8372 25.6136 52.5784 25.7621L42.9355 31.3646V42.4662C42.9352 42.6148 42.8963 42.7607 42.8227 42.8894C42.7492 43.0181 42.6434 43.1251 42.5161 43.1997L22.3826 54.8864C22.336 54.9122 22.2866 54.9325 22.2354 54.9471C22.2176 54.9516 22.1997 54.9651 22.1819 54.9696C22.0419 55.0101 21.8935 55.0101 21.7536 54.9696C21.7291 54.9651 21.709 54.9516 21.6867 54.9426C21.6421 54.9246 21.593 54.9111 21.5484 54.8864L1.42159 43.1997C1.29355 43.1257 1.18714 43.0189 1.11312 42.8901C1.0391 42.7613 1.00008 42.6151 1 42.4662V7.69211C1 7.61786 1.01115 7.54361 1.03123 7.47161C1.03792 7.44461 1.05353 7.42661 1.06246 7.39961C1.07588 7.35473 1.09304 7.31107 1.11376 7.26911C1.12268 7.23986 1.14722 7.21961 1.16507 7.19486L1.23868 7.09361C1.26544 7.07111 1.29444 7.05311 1.32121 7.03286C1.35244 7.00586 1.38143 6.97886 1.41266 6.95636L11.4816 1.11304C11.6088 1.03899 11.753 1 11.8999 1C12.0467 1 12.191 1.03899 12.3181 1.11304L22.3826 6.95636H22.3871C22.4206 6.97886 22.4473 7.00361 22.4763 7.03061L22.5611 7.09136C22.5901 7.12286 22.6057 7.15886 22.6347 7.19261C22.6525 7.21736 22.6793 7.23986 22.6905 7.26686C22.7128 7.31186 22.7284 7.35236 22.744 7.39736C22.7507 7.42211 22.7663 7.44461 22.773 7.46936C22.7953 7.53911 22.8042 7.61336 22.8042 7.68986V29.4071L31.1913 24.538V13.4364C31.1913 13.3622 31.2002 13.2879 31.2203 13.2159C31.227 13.1934 31.2426 13.1709 31.2493 13.1439C31.2643 13.0985 31.2822 13.0542 31.3028 13.0112C31.3185 12.9842 31.343 12.9662 31.3586 12.9369C31.3854 12.9032 31.4055 12.8694 31.4322 12.8402C31.459 12.8132 31.488 12.7952 31.5148 12.7772C31.546 12.7547 31.5728 12.7254 31.6062 12.7052H31.6084L41.6752 6.8596C41.8024 6.78555 41.9466 6.74656 42.0934 6.74656C42.2403 6.74656 42.3845 6.78555 42.5117 6.8596L52.5784 12.7052C52.6141 12.7277 52.6386 12.7524 52.6721 12.7749C52.6989 12.7974 52.7279 12.8154 52.7524 12.8379C52.7814 12.8694 52.8015 12.9054 52.8282 12.9369C52.8461 12.9639 52.8706 12.9842 52.8818 13.0112C52.9044 13.0541 52.9223 13.0994 52.9353 13.1462C52.9487 13.1687 52.9621 13.1934 52.9688 13.2182ZM51.3181 24.5403V14.9034L47.7982 16.9465L42.931 19.7725V29.4093L51.3181 24.5403ZM41.2581 41.978V32.3321L36.4689 35.0884L22.8042 42.959V52.6903L41.2581 41.978ZM2.67073 9.15463V41.978L21.1246 52.6903V42.959L11.4839 37.4577L11.4794 37.4509H11.4749C11.4437 37.4284 11.4192 37.4037 11.3857 37.3812C11.3612 37.3587 11.3322 37.3407 11.3077 37.3204L11.3054 37.3159C11.2764 37.2889 11.2586 37.2597 11.2363 37.2259C11.214 37.2012 11.1894 37.1764 11.1738 37.1449H11.1694C11.1515 37.1134 11.1404 37.0752 11.1247 37.0392C11.1114 37.0032 11.0935 36.9784 11.0846 36.9424C11.0762 36.9001 11.0702 36.8572 11.0667 36.8142C11.0623 36.7827 11.0534 36.7534 11.0534 36.7219V14.0259L6.19063 11.1976L2.67073 9.15463ZM11.8988 2.82306L3.51167 7.69211L11.8988 12.5612L20.2814 7.69211L11.8988 2.82306ZM16.2618 33.2096L21.129 30.3836V9.15463L17.6047 11.2021L12.7375 14.0259V35.2549L16.2618 33.2096ZM42.0945 8.57187L33.7074 13.4387L42.0945 18.3055L50.4794 13.4364L42.0945 8.57187ZM41.2558 19.7725L36.3909 16.9465L32.8665 14.9057V24.5425L37.7337 27.3686L41.2581 29.4116L41.2558 19.7725ZM21.9611 41.4942L34.2606 34.4111L40.4082 30.8741L32.0278 26.0073L22.3849 31.6076L13.594 36.7152L21.9611 41.4942Z" fill="#5E17EB" stroke="#5E17EB"/>
</svg>
