<svg width="500" height="500" viewBox="0 0 500 500" fill="none" xmlns="http://www.w3.org/2000/svg">
<path d="M102.649 140.05V225.509C102.649 238.759 97.9663 249.332 88.6069 257.238C79.2423 265.155 66.9454 269.113 51.7111 269.113C36.1381 269.113 22.1902 264.978 9.85689 256.717L20.3361 236.321C29.3881 242.597 39.0965 245.738 49.4611 245.738C56.6694 245.738 62.3361 243.993 66.4611 240.509C70.5861 237.019 72.6486 232.316 72.6486 226.384V216.446C66.2423 224.811 57.2319 228.988 45.6069 228.988C33.6329 228.988 23.8986 224.811 16.3986 216.446C8.89856 208.071 5.14856 197.082 5.14856 183.467C5.14856 170.217 8.80481 159.498 16.1277 151.3C23.4611 143.108 33.0548 139.009 44.9194 139.009C56.8881 138.884 66.1329 143.071 72.6486 151.571V140.05H102.649ZM53.1069 207.196C58.9246 207.196 63.6329 205.082 67.2319 200.842C70.8413 196.592 72.6486 191.092 72.6486 184.342C72.6486 177.483 70.8413 171.936 67.2319 167.696C63.6329 163.446 58.9246 161.321 53.1069 161.321C47.1746 161.321 42.3777 163.446 38.7111 167.696C35.0548 171.936 33.2319 177.483 33.2319 184.342C33.2319 191.092 35.0548 196.592 38.7111 200.842C42.3777 205.082 47.1746 207.196 53.1069 207.196Z" fill="black"/>
<path d="M217.205 140.051V234.051H187.038V218.53C180.648 229.696 170.476 235.28 156.518 235.28C146.294 235.28 138.127 232.024 132.018 225.509C125.919 218.998 122.872 210.274 122.872 199.342V140.051H153.038V190.801C153.038 196.384 154.46 200.774 157.309 203.967C160.153 207.165 163.96 208.759 168.726 208.759C174.419 208.649 178.893 206.53 182.143 202.405C185.403 198.269 187.038 192.946 187.038 186.446V140.051H217.205Z" fill="black"/>
<path d="M274.927 138.655C288.76 138.655 301.666 142.207 313.656 149.3L303.364 168.821C291.739 162.545 281.854 159.405 273.718 159.405C267.552 159.405 264.468 161.561 264.468 165.863C264.468 168.186 266.145 170.129 269.51 171.696C272.885 173.269 277.015 174.696 281.906 175.988C286.791 177.269 291.645 178.863 296.468 180.78C301.286 182.696 305.385 185.748 308.76 189.925C312.135 194.108 313.823 199.228 313.823 205.28C313.823 214.696 310.156 222.05 302.823 227.342C295.5 232.634 285.974 235.28 274.239 235.28C257.614 235.28 243.541 230.858 232.031 222.009L241.614 202.842C252.666 210.623 263.77 214.509 274.927 214.509C281.786 214.509 285.218 212.363 285.218 208.071C285.218 205.629 283.557 203.592 280.239 201.967C276.932 200.342 272.895 198.894 268.135 197.613C263.369 196.321 258.599 194.717 253.823 192.8C249.057 190.884 245.015 187.894 241.698 183.821C238.39 179.754 236.739 174.644 236.739 168.488C236.739 159.061 240.281 151.733 247.364 146.509C254.458 141.274 263.645 138.655 274.927 138.655Z" fill="black"/>
<path d="M385.491 208.071L391.428 228.988C384.095 233.295 375.72 235.446 366.303 235.446C357.011 235.446 349.48 232.863 343.72 227.696C337.97 222.519 335.095 215.165 335.095 205.634V164.113H322.011V144.405H335.095V118.259H365.095V144.238H389.678V164.113H365.095V200.925C365.095 204.524 365.813 207.17 367.261 208.863C368.72 210.545 370.897 211.321 373.803 211.196C376.595 211.196 380.491 210.155 385.491 208.071Z" fill="black"/>
<path d="M448.786 138.655C461.702 138.655 471.728 141.649 478.869 147.634C486.02 153.623 489.661 161.962 489.786 172.655V234.05H460.306V223.238C454.14 231.379 444.546 235.446 431.536 235.446C421.645 235.446 413.791 232.717 407.973 227.259C402.166 221.79 399.265 214.691 399.265 205.967C399.265 197.024 402.374 190.082 408.598 185.134C414.817 180.191 423.744 177.665 435.369 177.55H460.119V176.155C460.119 171.504 458.577 167.873 455.494 165.259C452.421 162.634 447.869 161.321 441.827 161.321C433.327 161.321 423.963 163.941 413.744 169.175L405.202 149.3C420.421 142.207 434.952 138.655 448.786 138.655ZM440.765 215.05C445.541 215.05 449.728 213.858 453.327 211.467C456.937 209.082 459.202 205.967 460.119 202.134V193.759H441.119C432.046 193.759 427.515 197.134 427.515 203.884C427.515 207.373 428.671 210.108 430.994 212.092C433.327 214.066 436.582 215.05 440.765 215.05Z" fill="black"/>
<path d="M73.1681 407.501H42.2931L6.89722 313.501H37.9389L58.1681 379.939L78.5847 313.501H108.564L73.1681 407.501Z" fill="#5E17EB"/>
<path d="M129.047 275.064C132.016 272.095 135.828 270.605 140.484 270.605C145.135 270.605 148.943 272.095 151.901 275.064C154.87 278.022 156.359 281.829 156.359 286.48C156.359 291.121 154.87 294.954 151.901 297.98C148.943 301.012 145.135 302.522 140.484 302.522C135.828 302.522 132.016 301.012 129.047 297.98C126.089 294.954 124.609 291.121 124.609 286.48C124.609 281.829 126.089 278.022 129.047 275.064ZM155.297 407.501H125.318V313.501H155.297V407.501Z" fill="#5E17EB"/>
<path d="M219.127 312.105C232.96 312.105 245.867 315.658 257.856 322.751L247.565 342.272C235.94 335.996 226.054 332.855 217.919 332.855C211.752 332.855 208.669 335.012 208.669 339.314C208.669 341.637 210.346 343.579 213.71 345.147C217.085 346.72 221.216 348.147 226.106 349.439C230.992 350.72 235.846 352.314 240.669 354.23C245.486 356.147 249.585 359.199 252.96 363.376C256.335 367.559 258.023 372.678 258.023 378.73C258.023 388.147 254.356 395.501 247.023 400.793C239.7 406.085 230.174 408.73 218.44 408.73C201.815 408.73 187.742 404.309 176.231 395.46L185.815 376.293C196.867 384.074 207.971 387.96 219.127 387.96C225.986 387.96 229.419 385.814 229.419 381.522C229.419 379.079 227.757 377.043 224.44 375.418C221.132 373.793 217.096 372.345 212.335 371.064C207.57 369.772 202.799 368.168 198.023 366.251C193.257 364.335 189.216 361.345 185.898 357.272C182.591 353.204 180.94 348.095 180.94 341.939C180.94 332.512 184.481 325.184 191.565 319.96C198.658 314.725 207.846 312.105 219.127 312.105Z" fill="#5E17EB"/>
<path d="M322.017 371.23L311.912 381.855V407.501H281.725V278.105H311.912V346.46L342.954 313.501H377.121L342.6 349.605L378.183 407.501H342.433L322.017 371.23Z" fill="#5E17EB"/>
<path d="M486.288 443.085H384.621V426.689H486.288V443.085Z" fill="#5E17EB"/>
</svg>
