<svg width="181" height="35" viewBox="0 0 181 35" fill="none" xmlns="http://www.w3.org/2000/svg">
<path d="M20.8903 32.9731H2.01025V30.004H20.8903V32.9731Z" fill="black"/>
<path d="M39.8039 9.55269V24.9989C39.8039 27.3894 38.9327 29.2999 37.195 30.7306C35.4549 32.1591 33.171 32.8745 30.3454 32.8745C27.4507 32.8745 24.8603 32.13 22.574 30.6409L24.51 26.9543C26.1924 28.0845 27.997 28.6496 29.9214 28.6496C31.2604 28.6496 32.3113 28.3357 33.0742 27.7078C33.8416 27.0799 34.2265 26.2278 34.2265 25.1514V23.3574C33.0396 24.8711 31.3687 25.6268 29.2115 25.6268C26.9852 25.6268 25.176 24.8711 23.7817 23.3574C22.392 21.846 21.6982 19.8591 21.6982 17.4014C21.6982 15.0109 22.3758 13.0734 23.7356 11.5889C25.093 10.1066 26.8746 9.36432 29.0825 9.36432C31.3065 9.34638 33.0212 10.1043 34.2265 11.6337V9.55269H39.8039ZM30.6036 21.689C31.6845 21.689 32.5579 21.3078 33.2217 20.5408C33.89 19.7761 34.2265 18.7827 34.2265 17.5628C34.2265 16.325 33.89 15.3248 33.2217 14.5579C32.5579 13.7865 31.6845 13.4008 30.6036 13.4008C29.5019 13.4008 28.6123 13.7865 27.9301 14.5579C27.2479 15.3248 26.9068 16.325 26.9068 17.5628C26.9068 18.7827 27.2479 19.7761 27.9301 20.5408C28.6123 21.3078 29.5019 21.689 30.6036 21.689Z" fill="black"/>
<path d="M61.0755 9.55261V26.5416H55.4705V23.734C54.2836 25.7568 52.3937 26.7659 49.801 26.7659C47.9019 26.7659 46.3831 26.1783 45.2469 24.9988C44.1153 23.8215 43.5507 22.245 43.5507 20.2717V9.55261H49.1557V18.7288C49.1557 19.7335 49.4184 20.5273 49.9485 21.1059C50.4762 21.6867 51.1838 21.9759 52.0688 21.9759C53.1243 21.9535 53.954 21.57 54.5578 20.8278C55.1663 20.081 55.4705 19.119 55.4705 17.9395V9.55261H61.0755Z" fill="black"/>
<path d="M71.7842 9.30151C74.3516 9.30151 76.7485 9.9451 78.9748 11.23L77.0666 14.7552C74.9094 13.6205 73.0748 13.0509 71.563 13.0509C70.4198 13.0509 69.8483 13.4411 69.8483 14.217C69.8483 14.6431 70.1571 14.9974 70.7794 15.2844C71.4062 15.567 72.1714 15.8226 73.0748 16.0559C73.9829 16.2846 74.8863 16.5716 75.7852 16.917C76.6817 17.2645 77.4445 17.8184 78.0714 18.5764C78.6983 19.3299 79.0117 20.2515 79.0117 21.3391C79.0117 23.0434 78.3295 24.3754 76.9652 25.3307C75.6054 26.2883 73.8354 26.7659 71.6552 26.7659C68.5692 26.7659 65.958 25.9676 63.8192 24.371L65.5984 20.8996C67.6496 22.3124 69.7123 23.0165 71.7842 23.0165C73.061 23.0165 73.7017 22.6286 73.7017 21.8504C73.7017 21.4086 73.3906 21.0409 72.7706 20.7471C72.1553 20.4489 71.4062 20.1865 70.5212 19.9578C69.6362 19.7245 68.7512 19.4353 67.8662 19.0877C66.9812 18.7423 66.2299 18.1997 65.6169 17.4641C65.0015 16.7286 64.695 15.8047 64.695 14.6924C64.695 12.9949 65.3518 11.6741 66.6678 10.7277C67.9884 9.77692 69.6939 9.30151 71.7842 9.30151Z" fill="black"/>
<path d="M92.3123 21.8504L93.4186 25.6267C92.0588 26.4049 90.5054 26.7928 88.7539 26.7928C87.0254 26.7928 85.6287 26.3264 84.5594 25.3935C83.49 24.4562 82.9553 23.1241 82.9553 21.4019V13.9031H80.5308V10.342H82.9553V5.61487H88.5234V10.3151H93.0959V13.9031H88.5234V20.5587C88.5234 21.2046 88.6571 21.68 88.929 21.9849C89.1987 22.2899 89.6043 22.4334 90.1459 22.4155C90.6622 22.4155 91.3835 22.2271 92.3123 21.8504Z" fill="black"/>
<path d="M104.074 9.30151C106.464 9.30151 108.324 9.84419 109.651 10.9251C110.983 12.0082 111.661 13.5151 111.679 15.4459V26.5417H106.203V24.5862C105.06 26.0573 103.281 26.7928 100.866 26.7928C99.0266 26.7928 97.5677 26.2995 96.4868 25.3128C95.4105 24.3261 94.8735 23.0434 94.8735 21.4647C94.8735 19.8501 95.4497 18.5988 96.6067 17.7063C97.7613 16.8093 99.4184 16.3519 101.576 16.3339H106.176V16.0828C106.176 15.2396 105.89 14.5825 105.318 14.1094C104.747 13.6385 103.899 13.4008 102.774 13.4008C101.2 13.4008 99.4599 13.8739 97.5562 14.818L95.9706 11.23C98.7961 9.9451 101.497 9.30151 104.074 9.30151ZM102.58 23.1062C103.465 23.1062 104.242 22.8909 104.913 22.4604C105.581 22.0298 106.003 21.4692 106.176 20.774V19.2581H102.645C100.96 19.2581 100.119 19.8681 100.119 21.088C100.119 21.7226 100.333 22.2182 100.764 22.577C101.193 22.9313 101.799 23.1062 102.58 23.1062Z" fill="black"/>
<path d="M125.565 26.5416H119.84L113.258 9.55261H119.029L122.781 21.5633L126.569 9.55261H132.147L125.565 26.5416Z" fill="#5E17EB"/>
<path d="M134.843 2.6099C135.396 2.07171 136.102 1.80261 136.964 1.80261C137.83 1.80261 138.535 2.07171 139.084 2.6099C139.637 3.14361 139.914 3.82981 139.914 4.67298C139.914 5.51167 139.637 6.20459 139.084 6.754C138.535 7.29892 137.83 7.57026 136.964 7.57026C136.102 7.57026 135.396 7.29892 134.843 6.754C134.29 6.20459 134.014 5.51167 134.014 4.67298C134.014 3.82981 134.29 3.14361 134.843 2.6099ZM139.72 26.5416H134.143V9.55261H139.72V26.5416Z" fill="#5E17EB"/>
<path d="M150.463 9.30151C153.03 9.30151 155.427 9.9451 157.653 11.23L155.745 14.7552C153.588 13.6205 151.753 13.0509 150.241 13.0509C149.098 13.0509 148.527 13.4411 148.527 14.217C148.527 14.6431 148.836 14.9974 149.458 15.2844C150.085 15.567 150.85 15.8226 151.753 16.0559C152.661 16.2846 153.565 16.5716 154.464 16.917C155.36 17.2645 156.123 17.8184 156.75 18.5764C157.377 19.3299 157.69 20.2515 157.69 21.3391C157.69 23.0434 157.008 24.3754 155.644 25.3307C154.284 26.2883 152.514 26.7659 150.334 26.7659C147.248 26.7659 144.636 25.9676 142.498 24.371L144.277 20.8996C146.328 22.3124 148.391 23.0165 150.463 23.0165C151.739 23.0165 152.38 22.6286 152.38 21.8504C152.38 21.4086 152.069 21.0409 151.449 20.7471C150.834 20.4489 150.085 20.1865 149.2 19.9578C148.315 19.7245 147.43 19.4353 146.545 19.0877C145.66 18.7423 144.908 18.1997 144.295 17.4641C143.68 16.7286 143.373 15.8047 143.373 14.6924C143.373 12.9949 144.03 11.6741 145.346 10.7277C146.667 9.77692 148.372 9.30151 150.463 9.30151Z" fill="#5E17EB"/>
<path d="M168.465 19.9847L166.594 21.9132V26.5417H160.989V3.1571H166.594V15.5087L172.355 9.55265H178.707L172.291 16.0827L178.901 26.5417H172.254L168.465 19.9847Z" fill="#5E17EB"/>
</svg>
