<svg xmlns="http://www.w3.org/2000/svg" xmlns:xlink="http://www.w3.org/1999/xlink" width="500" zoomAndPan="magnify" viewBox="0 0 375 374.999991" height="500" preserveAspectRatio="xMidYMid meet" version="1.0"><defs><g/><clipPath id="90cf07e97e"><path d="M 187.5 0 C 83.945312 0 0 83.945312 0 187.5 C 0 291.054688 83.945312 375 187.5 375 C 291.054688 375 375 291.054688 375 187.5 C 375 83.945312 291.054688 0 187.5 0 " clip-rule="nonzero"/></clipPath></defs><g clip-path="url(#90cf07e97e)"><rect x="-37.5" width="450" fill="#000000" y="-37.499999" height="449.999989" fill-opacity="1"/></g><g fill="#5e17eb" fill-opacity="1"><g transform="translate(41.390627, 221.999985)"><g><path d="M 74.84375 -69.296875 L 44.84375 0 L 29 0 L -0.890625 -69.296875 L 16.4375 -69.296875 L 37.515625 -19.796875 L 58.90625 -69.296875 Z M 74.84375 -69.296875 "/></g></g></g><g fill="#5e17eb" fill-opacity="1"><g transform="translate(115.235936, 221.999985)"><g><path d="M 8.21875 -69.296875 L 24.25 -69.296875 L 24.25 0 L 8.21875 0 Z M 8.21875 -69.296875 "/></g></g></g><g fill="#5e17eb" fill-opacity="1"><g transform="translate(147.704116, 221.999985)"><g><path d="M 30.984375 1.1875 C 25.503906 1.1875 20.207031 0.445312 15.09375 -1.03125 C 9.976562 -2.519531 5.867188 -4.453125 2.765625 -6.828125 L 8.21875 -18.90625 C 11.1875 -16.726562 14.71875 -14.976562 18.8125 -13.65625 C 22.90625 -12.34375 27 -11.6875 31.09375 -11.6875 C 35.644531 -11.6875 39.007812 -12.359375 41.1875 -13.703125 C 43.363281 -15.054688 44.453125 -16.859375 44.453125 -19.109375 C 44.453125 -20.753906 43.804688 -22.117188 42.515625 -23.203125 C 41.234375 -24.296875 39.582031 -25.171875 37.5625 -25.828125 C 35.550781 -26.492188 32.832031 -27.222656 29.40625 -28.015625 C 24.125 -29.265625 19.800781 -30.515625 16.4375 -31.765625 C 13.070312 -33.023438 10.179688 -35.039062 7.765625 -37.8125 C 5.359375 -40.582031 4.15625 -44.28125 4.15625 -48.90625 C 4.15625 -52.925781 5.242188 -56.570312 7.421875 -59.84375 C 9.597656 -63.113281 12.878906 -65.703125 17.265625 -67.609375 C 21.660156 -69.523438 27.023438 -70.484375 33.359375 -70.484375 C 37.785156 -70.484375 42.109375 -69.953125 46.328125 -68.890625 C 50.554688 -67.835938 54.253906 -66.320312 57.421875 -64.34375 L 52.46875 -52.171875 C 46.0625 -55.804688 39.660156 -57.625 33.265625 -57.625 C 28.773438 -57.625 25.457031 -56.894531 23.3125 -55.4375 C 21.164062 -53.988281 20.09375 -52.078125 20.09375 -49.703125 C 20.09375 -47.328125 21.328125 -45.5625 23.796875 -44.40625 C 26.273438 -43.25 30.054688 -42.109375 35.140625 -40.984375 C 40.421875 -39.734375 44.742188 -38.476562 48.109375 -37.21875 C 51.472656 -35.96875 54.359375 -33.988281 56.765625 -31.28125 C 59.179688 -28.570312 60.390625 -24.910156 60.390625 -20.296875 C 60.390625 -16.335938 59.28125 -12.722656 57.0625 -9.453125 C 54.851562 -6.179688 51.535156 -3.585938 47.109375 -1.671875 C 42.691406 0.234375 37.316406 1.1875 30.984375 1.1875 Z M 30.984375 1.1875 "/></g></g></g><g fill="#5e17eb" fill-opacity="1"><g transform="translate(210.858687, 221.999985)"><g><path d="M 33.46875 -27.21875 L 24.15625 -17.515625 L 24.15625 0 L 8.21875 0 L 8.21875 -69.296875 L 24.15625 -69.296875 L 24.15625 -36.921875 L 54.84375 -69.296875 L 72.671875 -69.296875 L 43.953125 -38.40625 L 74.34375 0 L 55.640625 0 Z M 33.46875 -27.21875 "/></g></g></g><g fill="#5e17eb" fill-opacity="1"><g transform="translate(284.110048, 221.999985)"><g><path d="M 0 0 L 49.5 0 L 49.5 8.90625 L 0 8.90625 Z M 0 0 "/></g></g></g></svg>