<svg width="58" height="58" viewBox="0 0 58 58" fill="none" xmlns="http://www.w3.org/2000/svg">
    <path
        d="M51.1706 5.1709C50.421 6.97086 49.4508 8.67057 48.2824 10.2309C45.7812 7.63719 42.7856 5.57229 39.4729 4.1585C36.1603 2.74471 32.5979 2.01076 28.9968 2.00012C25.3957 1.98948 21.8291 2.70236 18.5082 4.09655C15.1872 5.49075 12.1795 7.5379 9.663 10.1168C7.14654 12.6957 5.17253 15.7539 3.85786 19.1103C2.5432 22.4668 1.91461 26.0532 2.00931 29.6572C2.10401 33.2612 2.92009 36.8096 4.40921 40.0922C5.89833 43.3748 8.03022 46.3248 10.6786 48.7677L11.6773 49.6572C15.4713 52.8612 20.077 54.9513 24.9844 55.696C29.8918 56.4407 34.9093 55.8109 39.4812 53.8765C44.0531 51.9421 48.001 48.7784 50.8875 44.736C53.7741 40.6935 55.4867 35.9301 55.8356 30.9732C56.6139 24.1882 54.558 15.5139 51.1706 5.1709ZM14.5654 48.9906C14.2799 49.3416 13.897 49.6 13.4649 49.7331C13.0328 49.8663 12.571 49.8683 12.1377 49.7389C11.7045 49.6095 11.3193 49.3545 11.0308 49.0061C10.7422 48.6576 10.5633 48.2314 10.5165 47.7812C10.4697 47.331 10.5573 46.877 10.7681 46.4766C10.9788 46.0762 11.3034 45.7473 11.7008 45.5314C12.0981 45.3155 12.5505 45.2224 13.0007 45.2637C13.4509 45.3051 13.8788 45.479 14.2303 45.7637C14.6909 46.1541 14.9829 46.7076 15.0453 47.3086C15.1078 47.9095 14.9358 48.5136 14.5654 48.9906ZM51.0019 40.9266C44.3912 49.7675 30.1733 46.7658 21.1176 47.2094C21.1176 47.2094 18.1105 47.5605 16.5 47.7812C16.5 47.7812 18.5085 47.2657 19.2867 46.9864C25.6747 44.7638 28.673 44.3179 32.5598 42.316C39.8363 38.5914 47.1128 30.417 48.5569 21.9633C45.779 30.0837 37.3374 37.0893 29.6717 39.9245C24.3949 41.8724 14.8983 43.7617 14.8983 43.7617L14.5092 43.5388C8.06496 40.3704 7.84453 26.3568 19.6196 21.853C24.784 19.8488 29.674 20.9635 35.2815 19.6281C41.2264 18.2387 48.1137 13.7889 50.8916 7.94974C54.0002 17.3492 57.7767 31.9167 51.0019 40.9266Z"
        stroke="#5E17EB" stroke-width="3" />
</svg>